<svg id="Layer_1" data-name="Layer 1" xmlns="http://www.w3.org/2000/svg" viewBox="0 0 352.71 68.78"><defs><style>.cls-1{fill:#ffcd03;}.cls-2{fill:#006b68;}.cls-3{fill:#00b2ac;}</style></defs><path class="cls-1" d="M.11,29h0S.47,41.08,5.53,44.54a11.46,11.46,0,0,0,6.64,2.13c3.61-.06,9.94-2.3,13.36-.93a4.14,4.14,0,0,1,1.18,1,22.06,22.06,0,0,1,2.66,4.52l.5,1c.12-.16.24-.34.36-.52,7.06-9.88,19.64-26.26,37.94-33.76,2.49-1,5-1.91,5-1.91C66.56,9,61.49,6.53,56.91,4.69a28.37,28.37,0,0,0-3.11-1A3.44,3.44,0,0,0,52.64.91,3.83,3.83,0,0,0,48.47.39,7.21,7.21,0,0,0,46,2.44a1.66,1.66,0,0,0-.13.32A40.07,40.07,0,0,0,28.5,7.5s-4.33,2-9.28,3.67C8.53,14.3,3.89,17.37,3.89,17.37.57,19.38,0,23.47,0,25.17S0,28,.11,29Z"/><path class="cls-2" d="M3.93,23.56a1.41,1.41,0,0,1-.1-.43.52.52,0,0,1,.37-.54c.21,0,.28.11.37.26a3,3,0,0,0,.7.88c.22.18.52.31.65.58a.16.16,0,0,1,0,.09.53.53,0,0,1-.49.55,1,1,0,0,1-.74-.36A4,4,0,0,1,3.93,23.56Z"/><path class="cls-1" d="M23.59,68.78S28.37,58.13,32.41,52c0,0,16.79-26.71,41.62-34.67,0,0,10.37,9.7,15.29,21.67C89.32,39,74,32.67,23.59,68.78Z"/><ellipse class="cls-2" cx="32.49" cy="14.8" rx="1.51" ry="2.62" transform="translate(15.92 46.42) rotate(-86.83)"/><path class="cls-3" d="M110.79,17.69l-2.49,1Q105.38,10,97,10c-3.52,0-6.25.91-8.2,2.75A8.15,8.15,0,0,0,86.27,19,8,8,0,0,0,89,25.5c1.58,1.29,4.17,2.36,7.76,3.23l1.51.35q8.44,2,11.37,5.45,2.22,2.61,2.22,7.34A10.84,10.84,0,0,1,107.5,51Q103.59,54,97.26,54A15.08,15.08,0,0,1,82,43.09l2.54-1a12.48,12.48,0,0,0,5.24,7.55,13.37,13.37,0,0,0,7.5,2.11q6.27,0,9.41-3.08A8.91,8.91,0,0,0,109.22,42q0-4.5-2.67-6.78c-1.71-1.48-4.68-2.71-8.88-3.7l-1.27-.29Q88.81,29.38,86,26.12A10.46,10.46,0,0,1,83.67,19a10.21,10.21,0,0,1,3.81-8.14A14.24,14.24,0,0,1,97,7.74Q106.91,7.74,110.79,17.69Z"/><path class="cls-3" d="M137.7,30.36l-2.25.92q-2.1-7.11-8.53-7.11a8.31,8.31,0,0,0-7.37,4.09q-2.4,3.66-2.4,9.68,0,6.9,3.08,10.66a8.28,8.28,0,0,0,6.69,3.16q6.63,0,8.8-7.16l2.22,1q-3.1,8.19-11,8.2A10.64,10.64,0,0,1,117.74,49q-3-4.26-3-11,0-7.74,3.91-12.14a11.09,11.09,0,0,1,15.1-1.45A12.47,12.47,0,0,1,137.7,30.36Z"/><path class="cls-3" d="M154.24,22.1l-.18,2.37a8.64,8.64,0,0,0-6.31,3,17.35,17.35,0,0,0-4,7.37v18.3h-2.37V22.78h2.31V31a15.21,15.21,0,0,1,5-6.9A9.21,9.21,0,0,1,154.24,22.1Z"/><path class="cls-3" d="M155.17,29.62q3-7.53,11.4-7.52c3.59,0,6.2.9,7.82,2.72q2.19,2.49,2.19,7.4v10a55.81,55.81,0,0,0,.8,11h-2.25a38.33,38.33,0,0,1-.8-6q-4.44,6.64-11.22,6.64-4.74,0-7.26-2.79a8.33,8.33,0,0,1-2.07-5.83q0-8.23,10.07-9.89a95.39,95.39,0,0,1,10.36-1V32.67q0-5-2-6.9-1.77-1.66-5.62-1.66-7.08,0-9.21,6.6Zm19,6.63a70.37,70.37,0,0,0-10,1q-8.06,1.5-8,7.9a6.24,6.24,0,0,0,2.07,5,7.27,7.27,0,0,0,4.88,1.56q6.53,0,11.05-7.16Z"/><path class="cls-3" d="M185.08,22.78V28a13.72,13.72,0,0,1,4.64-4.56,9.57,9.57,0,0,1,4.8-1.33,10.33,10.33,0,0,1,8.94,4.82q3,4.3,3,11,0,7.7-3.93,12.14a10.67,10.67,0,0,1-8.27,3.76q-5.53,0-9.09-5.78V63.79h-2.36v-41Zm0,8V45.46a15.61,15.61,0,0,0,4.56,5,8.7,8.7,0,0,0,11.82-2.87A17.15,17.15,0,0,0,204,37.94q0-6.81-3-10.54a7.92,7.92,0,0,0-6.46-3.11Q188.87,24.29,185.13,30.77Z"/><path class="cls-3" d="M213.34,22.78V28A13.66,13.66,0,0,1,218,23.43a9.57,9.57,0,0,1,4.8-1.33,10.33,10.33,0,0,1,8.94,4.82q3,4.3,3,11,0,7.7-3.94,12.14a10.64,10.64,0,0,1-8.26,3.76q-5.53,0-9.09-5.78V63.79H211v-41Zm.06,8V45.46a15.61,15.61,0,0,0,4.56,5,8.69,8.69,0,0,0,11.81-2.87,17.15,17.15,0,0,0,2.49-9.68q0-6.81-3-10.54a7.92,7.92,0,0,0-6.45-3.11Q217.14,24.29,213.4,30.77Z"/><path class="cls-3" d="M258.43,22.78,247,54.81c-1.27,3.48-2.79,5.91-4.59,7.29a8.75,8.75,0,0,1-5.48,1.69,12.07,12.07,0,0,1-2.07-.21l-.24-2.22a9.17,9.17,0,0,0,2.37.38,6.57,6.57,0,0,0,4.92-1.92A16.19,16.19,0,0,0,245.07,54l.62-1.51L234.83,22.78h2.55l8,22.44c.35,1,.78,2.42,1.27,4.35h.12c.65-2.13,1.14-3.62,1.45-4.47l7.7-22.32Z"/><path class="cls-3" d="M263.8,7.74V27.93a13.31,13.31,0,0,1,4.59-4.5,9.5,9.5,0,0,1,4.79-1.33,10.33,10.33,0,0,1,8.94,4.82q3,4.3,3,11,0,7.7-3.94,12.14a10.65,10.65,0,0,1-8.26,3.76q-5.5,0-9.15-5.84l-.36,5.16h-1.95V7.74Zm0,23V45.46a15.61,15.61,0,0,0,4.56,5,8.69,8.69,0,0,0,11.81-2.87,17.15,17.15,0,0,0,2.49-9.68q0-6.81-3-10.54a7.92,7.92,0,0,0-6.46-3.11Q267.53,24.29,263.8,30.77Z"/><path class="cls-3" d="M289.13,29.62q3-7.53,11.4-7.52c3.59,0,6.2.9,7.82,2.72q2.19,2.49,2.19,7.4v10a55.81,55.81,0,0,0,.8,11h-2.25a38.33,38.33,0,0,1-.8-6q-4.44,6.64-11.22,6.64-4.74,0-7.26-2.79a8.33,8.33,0,0,1-2.07-5.83q0-8.23,10.07-9.89a95.39,95.39,0,0,1,10.36-1V32.67q0-5-2-6.9c-1.19-1.11-3.06-1.66-5.63-1.66q-7.08,0-9.21,6.6Zm19,6.63a70.53,70.53,0,0,0-9.95,1q-8.06,1.5-8.05,7.9a6.24,6.24,0,0,0,2.07,5,7.28,7.28,0,0,0,4.89,1.56q6.51,0,11-7.16Z"/><path class="cls-3" d="M329.58,22.1l-.18,2.37a8.64,8.64,0,0,0-6.31,3,17.24,17.24,0,0,0-4,7.37v18.3h-2.37V22.78H319V31a15.21,15.21,0,0,1,5-6.9A9.21,9.21,0,0,1,329.58,22.1Z"/><path class="cls-3" d="M330.51,29.62q3-7.53,11.4-7.52c3.59,0,6.2.9,7.81,2.72q2.19,2.49,2.19,7.4v10a56.6,56.6,0,0,0,.8,11h-2.25a41,41,0,0,1-.8-6q-4.44,6.64-11.22,6.64c-3.16,0-5.57-.93-7.25-2.79a8.33,8.33,0,0,1-2.07-5.83q0-8.23,10.06-9.89a95.61,95.61,0,0,1,10.37-1V32.67q0-5-2-6.9c-1.18-1.11-3.06-1.66-5.62-1.66q-7.08,0-9.21,6.6Zm19,6.63a70.37,70.37,0,0,0-9.95,1q-8.06,1.5-8.06,7.9a6.22,6.22,0,0,0,2.08,5,7.27,7.27,0,0,0,4.88,1.56q6.51,0,11.05-7.16Z"/></svg>